<svg id="Layer_1" data-name="Layer 1" xmlns="http://www.w3.org/2000/svg" viewBox="0 0 117.578 57.767">
  <defs>
    <style>
      .cls-1 {
        fill: none;
        stroke: #000;
        stroke-miterlimit: 10;
        stroke-width: 7px;
      }
    </style>
  </defs>
  <title>31cb46b4-1bd1-423a-97fa-4fbb6457689a</title>
  <g>
    <g id="backarrow.png">
      <line class="cls-1" x1="35.71" y1="2.433" x2="4.859" y2="34.347"/>
      <line class="cls-1" x1="38.912" y1="54.541" x2="1.706" y2="33.777"/>
    </g>
    <g>
      <path d="M50.926,33.407v.867a3.832,3.832,0,0,1-1.154,2.795,3.774,3.774,0,0,1-2.783,1.166H40.965V22.661h6.023a3.784,3.784,0,0,1,2.783,1.16,3.826,3.826,0,0,1,1.154,2.8v.832a3.886,3.886,0,0,1-1.348,2.977A3.933,3.933,0,0,1,50.926,33.407ZM48.91,27.431v-.809a1.928,1.928,0,0,0-.58-1.406,1.885,1.885,0,0,0-1.389-.586H42.933V29.4h4.008a1.991,1.991,0,0,0,1.969-1.969Zm0,6.844v-.82a1.928,1.928,0,0,0-.58-1.406,1.885,1.885,0,0,0-1.389-.586H42.957v4.781h3.984a1.991,1.991,0,0,0,1.969-1.969Z"/>
      <path d="M58.442,31.134H62.3a4.356,4.356,0,0,1,.916.141L63.2,29.88a.981.981,0,0,0-.986-.984H58.463a.984.984,0,1,1,0-1.969h3.744a2.851,2.851,0,0,1,2.083.855,2.965,2.965,0,0,1,.9,2.1l.246,7.371a.94.94,0,0,1-.293.7.955.955,0,0,1-.691.287.983.983,0,0,1-.715-.287.94.94,0,0,1-.293-.7l-1.667.984H58.442a2.963,2.963,0,0,1-2.981-2.977V34.11a2.983,2.983,0,0,1,2.981-2.977Zm4.923,3.832-.059-.832a1,1,0,0,0-.293-.7.942.942,0,0,0-.692-.281H58.438a.98.98,0,0,0-.985.984v1.1a1,1,0,0,0,.985.984h2.78Z"/>
      <path d="M78.957,38.235H74.75a2.831,2.831,0,0,1-1.9-.668L70.941,35.9a2.544,2.544,0,0,1-.914-2.062V31.274a2.654,2.654,0,0,1,1.031-2.18l1.723-1.488a2.767,2.767,0,0,1,1.781-.68H78.98a.99.99,0,0,1,.7,1.688.959.959,0,0,1-.7.281H74.75a1.148,1.148,0,0,0-.762.316L72.406,30.56a1.094,1.094,0,0,0-.387.879v2.4a.844.844,0,0,0,.3.656l1.734,1.477a1.253,1.253,0,0,0,.867.293h4.031a.955.955,0,0,1,.691.287.94.94,0,0,1,.293.7.98.98,0,0,1-.984.984Z"/>
      <path d="M84.5,37.251V23.669a.983.983,0,0,1,.287-.715.976.976,0,0,1,1.395,0,.983.983,0,0,1,.287.715v8.04l5.3-4.5a1.135,1.135,0,0,1,.738-.281.923.923,0,0,1,.7.3,1,1,0,0,1,.281.71.867.867,0,0,1-.3.693l-4.13,3.487,5.087,4.467a.788.788,0,0,1,.306.645,1.01,1.01,0,0,1-.281.7.9.9,0,0,1-.691.311,1.088,1.088,0,0,1-.727-.27L87.5,33.407l-1.035.87v2.975a.984.984,0,1,1-1.969,0Z"/>
    </g>
  </g>
</svg>
