<svg id="Layer_1" data-name="Layer 1" xmlns="http://www.w3.org/2000/svg" viewBox="0 0 378.094 593.338">
  <defs>
    <style>
      .cls-1 {
        fill: #630;
      }

      .cls-2, .cls-5 {
        fill: #855c33;
      }

      .cls-2 {
        stroke: #963;
        stroke-miterlimit: 10;
        stroke-width: 9px;
      }

      .cls-3 {
        fill: #b36212;
      }

      .cls-4 {
        fill: #963;
      }
    </style>
  </defs>
  <title>6cab5684-f308-438f-9060-44ca8beb3508</title>
  <g>
    <polygon class="cls-1" points="2.094 9.164 2.094 264.976 8.651 264.976 2.094 264.976 2.094 589.585 377.616 589.585 377.616 9.164 2.094 9.164"/>
    <g>
      <line class="cls-2" x1="13.531" y1="487.68" x2="365.867" y2="489.386"/>
      <line class="cls-2" x1="13.692" y1="394.161" x2="366.028" y2="395.867"/>
      <line class="cls-2" x1="8.708" y1="297.461" x2="370.856" y2="297.927"/>
      <line class="cls-2" x1="12.132" y1="211.808" x2="367.645" y2="213.53"/>
      <g>
        <g>
          <path class="cls-3" d="M0,0,12,8.749l354.533.782L377.985,0Z"/>
          <path class="cls-4" d="M13.2,572.693,12,8.749,0,0,.3,261.508h0l.376,331.83Z"/>
          <path class="cls-5" d="M377.314,593.338l-12.528-20.645q.6-281.972,1.2-563.944l12-8.749Z"/>
        </g>
        <path class="cls-3" d="M378.094,590.132l-12-15.717L11.561,573.01.109,590.132Z"/>
      </g>
      <line class="cls-2" x1="9.03" y1="118.882" x2="364.543" y2="120.603"/>
    </g>
  </g>
</svg>
