<svg id="Layer_1" data-name="Layer 1" xmlns="http://www.w3.org/2000/svg" viewBox="0 0 130.518 289.006">
  <defs>
    <style>
      .cls-1 {
        fill: #ffa366;
      }

      .cls-2, .cls-22, .cls-23 {
        fill: none;
      }

      .cls-2 {
        stroke: #ffe0cc;
      }

      .cls-10, .cls-11, .cls-12, .cls-13, .cls-14, .cls-15, .cls-16, .cls-17, .cls-18, .cls-19, .cls-2, .cls-20, .cls-21, .cls-22, .cls-23, .cls-3, .cls-4, .cls-5, .cls-6, .cls-7, .cls-8, .cls-9 {
        stroke-miterlimit: 10;
      }

      .cls-3 {
        fill: #ff2d71;
      }

      .cls-10, .cls-11, .cls-12, .cls-13, .cls-14, .cls-15, .cls-16, .cls-17, .cls-18, .cls-19, .cls-20, .cls-21, .cls-3, .cls-4, .cls-5, .cls-6, .cls-7, .cls-8, .cls-9 {
        stroke: #ccc;
      }

      .cls-10, .cls-11, .cls-12, .cls-13, .cls-14, .cls-15, .cls-21, .cls-23, .cls-3, .cls-4, .cls-5, .cls-6, .cls-7, .cls-8, .cls-9 {
        stroke-width: 3px;
      }

      .cls-4 {
        fill: #e80004;
      }

      .cls-5 {
        fill: #c8a100;
      }

      .cls-6 {
        fill: #ffad3f;
      }

      .cls-7 {
        fill: #f7ff28;
      }

      .cls-8 {
        fill: #c9ff4d;
      }

      .cls-9 {
        fill: #94ff76;
      }

      .cls-10 {
        fill: #1a7a00;
      }

      .cls-11 {
        fill: #0006da;
      }

      .cls-12 {
        fill: #3e007a;
      }

      .cls-13 {
        fill: #af48ff;
      }

      .cls-14 {
        fill: #9f00a8;
      }

      .cls-15 {
        fill: #5a0097;
      }

      .cls-16, .cls-17, .cls-18, .cls-19, .cls-20, .cls-22 {
        stroke-width: 4px;
      }

      .cls-17 {
        fill: #42210b;
      }

      .cls-18 {
        fill: #666;
      }

      .cls-19 {
        fill: #999;
      }

      .cls-20 {
        fill: #fff;
      }

      .cls-21 {
        fill: #ffa3fe;
      }

      .cls-22, .cls-23 {
        stroke: #000;
      }
    </style>
  </defs>
  <title>2387b0bf-54b1-4177-8a22-11c91b0cdeaf</title>
  <g>
    <g>
      <rect class="cls-1" x="0.5" y="0.5" width="129.518" height="288.006" rx="10" ry="10"/>
      <rect class="cls-2" x="0.5" y="0.5" width="129.518" height="288.006" rx="10" ry="10"/>
    </g>
    <ellipse class="cls-3" cx="102.8" cy="25.946" rx="15.599" ry="15.593"/>
    <ellipse class="cls-4" cx="24.622" cy="63.506" rx="15.599" ry="15.593"/>
    <ellipse class="cls-5" cx="64.035" cy="63.506" rx="15.599" ry="15.593"/>
    <ellipse class="cls-6" cx="103.62" cy="63.506" rx="15.599" ry="15.593"/>
    <ellipse class="cls-7" cx="24.258" cy="103.85" rx="15.599" ry="15.593"/>
    <ellipse class="cls-8" cx="63.672" cy="103.85" rx="15.599" ry="15.593"/>
    <ellipse class="cls-9" cx="103.257" cy="103.85" rx="15.599" ry="15.593"/>
    <ellipse class="cls-10" cx="24.986" cy="144.54" rx="15.599" ry="15.593"/>
    <ellipse class="cls-11" cx="64.399" cy="144.54" rx="15.599" ry="15.593"/>
    <ellipse class="cls-12" cx="103.985" cy="144.54" rx="15.599" ry="15.593"/>
    <ellipse class="cls-13" cx="25.806" cy="182.1" rx="15.599" ry="15.593"/>
    <ellipse class="cls-14" cx="65.22" cy="182.1" rx="15.599" ry="15.593"/>
    <ellipse class="cls-15" cx="104.805" cy="182.1" rx="15.599" ry="15.593"/>
    <ellipse class="cls-16" cx="25.443" cy="222.444" rx="15.599" ry="15.593"/>
    <ellipse class="cls-17" cx="63.215" cy="265.018" rx="15.599" ry="15.593"/>
    <ellipse class="cls-18" cx="64.856" cy="222.444" rx="15.599" ry="15.593"/>
    <ellipse class="cls-19" cx="104.441" cy="222.444" rx="15.599" ry="15.593"/>
    <ellipse class="cls-18" cx="23.801" cy="265.491" rx="15.599" ry="15.593"/>
    <ellipse class="cls-18" cx="103.985" cy="265.018" rx="15.599" ry="15.593"/>
    <ellipse class="cls-20" cx="23.801" cy="25.946" rx="15.599" ry="15.593"/>
    <ellipse class="cls-21" cx="63.215" cy="25.946" rx="15.599" ry="15.593"/>
    <line class="cls-22" x1="106.395" y1="255.175" x2="106.395" y2="275.091"/>
    <line class="cls-23" x1="100.729" y1="255.06" x2="100.729" y2="274.976"/>
    <path d="M27.2,277.041,14.955,265.514l11.789-12.52.227,12.024Z"/>
  </g>
</svg>
