<svg id="Layer_1" data-name="Layer 1" xmlns="http://www.w3.org/2000/svg" xmlns:xlink="http://www.w3.org/1999/xlink" viewBox="0 0 683.333 768">
  <defs>
    <style>
      .cls-1 {
        fill: #f60;
      }

      .cls-2 {
        fill: none;
        stroke: #000;
      }

      .cls-2, .cls-6, .cls-7, .cls-8 {
        stroke-miterlimit: 10;
      }

      .cls-3 {
        fill: #bf4d00;
      }

      .cls-4 {
        fill: #630;
      }

      .cls-5 {
        fill: #ff8533;
      }

      .cls-6 {
        fill: url(#linear-gradient);
        stroke: url(#linear-gradient-2);
      }

      .cls-7 {
        fill: url(#linear-gradient-3);
        stroke: url(#linear-gradient-4);
      }

      .cls-8 {
        fill: #ffa366;
        stroke: #ffe0cc;
      }

      .cls-9 {
        fill: #b25212;
      }
    </style>
    <linearGradient id="linear-gradient" x1="582.834" y1="752.5" x2="659.833" y2="752.5" gradientUnits="userSpaceOnUse">
      <stop offset="0.075" stop-color="#666"/>
      <stop offset="0.259"/>
    </linearGradient>
    <linearGradient id="linear-gradient-2" x1="582.334" y1="752.5" x2="660.333" y2="752.5" gradientUnits="userSpaceOnUse">
      <stop offset="0" stop-color="#fff"/>
      <stop offset="1"/>
    </linearGradient>
    <linearGradient id="linear-gradient-3" x1="12.541" x2="89.541" xlink:href="#linear-gradient"/>
    <linearGradient id="linear-gradient-4" x1="12.041" x2="90.041" xlink:href="#linear-gradient-2"/>
  </defs>
  <title>1e7c7ec9-ce4a-4eef-a29c-45876e32ede4</title>
  <g>
    <g>
      <path class="cls-1" d="M22.5.5a22.065,22.065,0,0,0-22,22v693a22.065,22.065,0,0,0,22,22H660.833a22.065,22.065,0,0,0,22-22V22.5a22.065,22.065,0,0,0-22-22Z"/>
      <path class="cls-2" d="M22.5.5a22.065,22.065,0,0,0-22,22v693a22.065,22.065,0,0,0,22,22H660.833a22.065,22.065,0,0,0,22-22V22.5a22.065,22.065,0,0,0-22-22Z"/>
    </g>
    <g>
      <rect class="cls-3" x="32.517" y="627.5" width="343.724" height="91" rx="12" ry="12"/>
      <rect class="cls-4" x="40.062" y="637.5" width="328.634" height="71" rx="12" ry="12"/>
      <polygon class="cls-5" points="133.092 651.863 196.326 694.137 259.56 651.863 133.092 651.863"/>
    </g>
    <rect class="cls-6" x="582.834" y="737.5" width="77" height="30" rx="12" ry="12"/>
    <rect class="cls-7" x="12.541" y="737.5" width="77" height="30" rx="12" ry="12"/>
    <rect class="cls-8" x="505.833" y="0.5" width="65" height="737"/>
    <g>
      <polygon class="cls-9" points="141.989 654.813 196.397 691.187 250.806 654.813 141.989 654.813"/>
      <polygon class="cls-5" points="154.943 659.144 196.397 686.856 237.851 659.144 154.943 659.144"/>
    </g>
  </g>
</svg>
